<svg width="28" height="39" viewBox="0 0 28 39" fill="none" xmlns="http://www.w3.org/2000/svg">
<path d="M7 15V9.22545C6.99824 7.43541 7.64808 5.70856 8.82336 4.38013C9.99864 3.05169 11.6155 2.21646 13.3601 2.03656C15.1047 1.85666 16.8525 2.34494 18.2643 3.40661C19.6761 4.46827 20.6511 6.02758 21 7.78182V15" stroke="white" stroke-width="4" stroke-linecap="round" stroke-linejoin="round"/>
<path d="M22.5669 16.5969C27.1444 21.2885 27.1444 28.7115 22.5669 33.4031C17.8878 38.199 10.1122 38.199 5.43305 33.4031C0.85565 28.7115 0.85565 21.2885 5.43305 16.5969C10.1122 11.801 17.8878 11.801 22.5669 16.5969Z" stroke="white" stroke-width="4"/>
<path d="M14 18.5C15.933 18.5 17.5 20.067 17.5 22C17.5 23.933 15.933 25.5 14 25.5C12.067 25.5 10.5 23.933 10.5 22C10.5 20.067 12.067 18.5 14 18.5Z" fill="white" stroke="white"/>
<rect x="12.5" y="24.5" width="3" height="7" fill="white" stroke="white"/>
</svg>
